<!DOCTYPE svg PUBLIC "-//W3C//DTD SVG 20010904//EN" "http://www.w3.org/TR/2001/REC-SVG-20010904/DTD/svg10.dtd">
<svg version="1.0" xmlns="http://www.w3.org/2000/svg" width="1600px" height="1600px" viewBox="0 0 16000 16000" preserveAspectRatio="xMidYMid meet">
<g id="layer101" fill="#36651f" stroke="none">
 <path d="M10940 11119 c0 -6 4 -19 10 -29 9 -16 4 -20 -39 -29 -140 -30 -262 -87 -395 -185 -8 -5 -40 11 -91 45 -119 78 -125 82 -190 116 -121 62 -180 77 -300 78 -100 0 -114 -2 -160 -27 -59 -31 -95 -67 -125 -126 -19 -36 -22 -55 -19 -126 4 -74 8 -89 34 -128 53 -75 143 -106 220 -74 66 28 90 142 39 193 -24 24 -30 25 -117 22 l-92 -4 1 43 c1 54 26 89 85 119 104 53 237 36 404 -51 94 -49 235 -142 235 -156 0 -3 -19 -31 -42 -62 -60 -80 -121 -199 -154 -298 -24 -74 -28 -105 -32 -237 l-4 -153 -368 0 -367 0 -6 -37 c-4 -20 -5 -39 -3 -41 2 -2 36 -8 74 -14 82 -12 124 -35 149 -80 17 -31 18 -85 21 -839 l2 -805 -23 -35 c-28 -42 -96 -68 -181 -69 -49 0 -57 -3 -52 -16 3 -9 6 -29 6 -45 l0 -28 268 -2 c147 0 362 -2 477 -2 191 -2 218 0 300 22 281 73 428 242 442 506 17 313 -180 561 -513 646 -73 19 -114 23 -229 22 -91 0 -159 -6 -192 -15 l-53 -15 0 319 c0 253 3 326 14 353 21 50 75 74 176 77 l81 3 29 -68 c105 -244 328 -347 569 -262 154 54 307 254 352 458 7 32 16 60 20 63 5 3 31 -17 60 -43 48 -45 50 -50 46 -90 -4 -39 -3 -41 26 -47 16 -3 42 -6 57 -6 17 0 40 -12 61 -32 19 -18 61 -57 92 -86 l57 -53 -2 -786 -3 -785 -36 -33 c-39 -35 -105 -55 -184 -55 l-45 0 0 -42 0 -43 706 -2 706 -3 -6 28 c-3 15 -9 113 -12 217 -7 247 -4 235 -59 235 -41 0 -45 -2 -50 -27 -46 -220 -90 -286 -212 -319 -57 -16 -103 -19 -294 -19 -177 0 -229 3 -242 14 -15 12 -17 52 -17 392 l0 379 188 -5 c103 -3 262 -7 355 -10 l167 -5 0 75 c0 41 3 75 8 75 4 0 29 -7 56 -15 49 -15 161 -20 190 -9 9 3 16 13 16 21 0 12 -153 190 -205 238 -47 44 -280 344 -385 495 -14 19 -28 40 -32 45 -5 6 -22 28 -39 50 l-31 40 63 3 c82 4 221 -13 284 -35 94 -33 165 -124 254 -324 l20 -46 46 10 c34 8 44 14 41 26 -27 90 -85 402 -86 464 0 16 -24 17 -354 17 l-353 0 -99 128 c-93 121 -369 452 -430 518 -271 288 -276 294 -250 294 48 0 201 -39 261 -66 81 -37 175 -98 264 -173 96 -80 109 -87 129 -68 14 14 13 18 -2 42 -26 40 -196 176 -281 224 -125 72 -299 121 -427 121 -53 0 -65 4 -95 30 -31 28 -40 30 -108 30 -47 0 -75 -4 -75 -11z m94 -181 c66 -156 111 -389 104 -536 l-3 -73 -51 48 c-162 153 -380 339 -502 429 -13 9 -6 18 39 51 77 58 144 89 251 117 134 36 130 37 162 -36z m241 -238 c50 -57 97 -112 105 -121 8 -9 24 -27 35 -40 40 -50 287 -355 298 -369 7 -9 29 -36 50 -62 20 -25 37 -49 37 -52 0 -3 -82 -6 -182 -6 l-183 1 -107 102 -107 102 -5 165 c-4 122 -12 196 -30 283 -14 65 -28 123 -31 130 -8 14 3 3 120 -133z m-703 3 c34 -27 85 -66 114 -88 76 -58 382 -332 426 -382 15 -16 16 -28 9 -75 -11 -65 -52 -167 -89 -222 -116 -172 -315 -227 -499 -140 -59 29 -143 109 -178 171 -101 181 -76 444 63 662 41 65 82 121 89 121 2 0 32 -21 65 -47z m1468 -945 c106 -131 381 -419 525 -548 33 -29 54 -55 48 -57 -15 -5 -137 43 -185 74 -21 12 -40 23 -44 23 -25 0 -375 264 -480 363 -54 50 -54 51 -54 111 0 96 29 176 64 176 7 0 63 -64 126 -142z m70 -407 c138 -108 227 -169 304 -208 l51 -26 -30 -9 c-16 -5 -155 -11 -307 -15 l-278 -6 0 237 0 238 68 -57 c37 -31 123 -100 192 -154z m-1787 -256 c225 -51 362 -290 327 -570 -25 -195 -119 -305 -305 -356 -91 -25 -246 -30 -307 -10 -76 25 -73 1 -76 491 l-3 438 68 11 c133 22 184 21 296 -4z"/>
 <path d="M12029 11121 c-99 -21 -156 -120 -114 -201 21 -41 53 -60 101 -60 34 0 47 5 63 26 25 32 26 55 6 94 -12 23 -25 31 -56 36 -40 7 -40 7 -22 26 45 44 153 31 221 -28 81 -69 141 -237 158 -447 l7 -82 -24 18 c-13 9 -31 20 -39 24 -23 10 -158 111 -228 170 -69 58 -102 68 -102 30 0 -15 16 -39 43 -64 52 -49 224 -176 306 -226 45 -27 61 -43 61 -60 1 -65 76 -157 129 -157 36 0 51 17 51 57 0 44 -21 83 -65 121 l-35 32 19 57 c48 146 31 322 -43 432 l-34 50 27 -10 c35 -14 178 -101 221 -136 8 -7 55 -44 103 -83 88 -72 117 -82 117 -39 0 49 -242 236 -419 324 -157 78 -346 118 -452 96z"/>
 <path d="M12964 11109 c-8 -13 25 -58 121 -166 130 -146 156 -178 216 -260 69 -94 97 -160 74 -170 -36 -13 -170 69 -302 184 -65 57 -96 65 -101 26 -7 -49 214 -234 372 -309 152 -73 230 -23 192 122 -8 32 -14 59 -12 61 1 2 16 -10 32 -25 97 -93 176 -152 203 -152 46 0 89 11 95 25 2 7 -17 39 -44 70 -94 111 -147 244 -120 296 17 31 29 39 63 39 44 0 87 -24 183 -106 90 -75 125 -89 132 -50 7 36 -179 190 -270 222 -97 34 -195 7 -224 -61 -16 -39 -18 -121 -4 -180 9 -39 8 -38 -99 70 -101 103 -232 253 -295 338 l-28 37 -89 0 c-52 0 -91 -4 -95 -11z"/>
 <path d="M14130 11092 c-37 -38 -46 -85 -26 -150 18 -61 49 -109 145 -220 l72 -83 -48 36 c-106 79 -135 96 -149 91 -23 -9 -16 -41 14 -67 94 -84 316 -240 416 -293 53 -28 79 -36 119 -36 66 0 127 17 127 35 0 8 -46 53 -102 101 -168 142 -409 391 -443 456 -28 55 -29 58 -12 75 15 15 22 16 64 5 106 -28 305 -147 443 -265 70 -60 112 -88 127 -85 33 6 24 33 -29 87 -53 55 -282 231 -300 231 -5 0 -23 9 -39 21 -17 12 -67 36 -112 55 -69 28 -94 34 -160 34 -73 0 -81 -2 -107 -28z"/>
 <path d="M14983 10098 c-13 -6 -25 -19 -28 -29 -9 -26 -79 -32 -347 -28 l-233 4 0 -40 0 -39 76 -11 c83 -11 126 -33 135 -69 4 -17 -24 -115 -84 -298 l-90 -273 -343 0 -343 0 -22 55 c-73 178 -130 326 -156 404 -25 75 -27 93 -18 117 16 37 60 56 153 64 74 7 78 9 73 29 -3 11 -6 30 -6 42 0 20 -3 20 -345 20 l-346 0 3 -40 3 -40 78 -12 c97 -15 131 -36 183 -114 38 -58 105 -197 145 -300 9 -25 45 -112 79 -195 34 -82 70 -170 80 -195 10 -25 33 -83 53 -130 56 -136 250 -613 303 -745 13 -33 48 -106 76 -162 51 -101 53 -102 93 -108 103 -15 95 -21 120 80 23 91 65 220 150 460 25 72 65 189 89 260 24 72 81 236 126 365 45 129 90 260 100 290 102 308 146 410 196 449 22 17 35 20 85 14 51 -5 63 -3 94 18 34 23 36 26 30 68 -4 24 -12 52 -18 62 -23 36 -96 50 -144 27z m-745 -1304 c-70 -213 -128 -393 -128 -400 0 -31 -18 -11 -39 44 -12 31 -33 84 -46 117 -36 93 -183 461 -216 542 -16 40 -29 75 -29 78 0 3 132 5 293 5 l294 0 -129 -386z"/>
 <path d="M1790 10084 c-14 -3 -63 -12 -110 -20 -250 -46 -489 -188 -628 -374 -133 -179 -192 -371 -192 -625 0 -302 82 -522 265 -710 100 -103 163 -148 295 -213 197 -97 388 -136 660 -136 179 1 349 19 477 51 l66 16 -7 61 c-3 34 -9 150 -13 259 l-6 197 -39 0 c-21 0 -41 1 -45 3 -5 1 -9 -9 -11 -23 -19 -191 -106 -330 -246 -398 -35 -17 -94 -36 -132 -43 -92 -16 -298 -6 -384 20 -311 91 -491 293 -560 631 -39 191 -15 506 51 675 119 300 336 472 634 504 259 27 445 -46 583 -228 28 -37 142 -261 142 -280 0 -7 6 -11 14 -8 8 3 31 9 50 13 20 3 36 7 36 9 0 1 -11 47 -24 101 -13 54 -34 167 -46 249 -12 83 -25 156 -29 164 -9 17 -107 43 -291 77 -109 19 -187 27 -315 29 -93 2 -181 1 -195 -1z"/>
 <path d="M7667 10022 c-13 -31 -46 -106 -72 -167 -26 -60 -55 -128 -65 -150 -31 -67 -381 -837 -397 -875 -9 -19 -26 -57 -38 -85 -55 -121 -78 -172 -92 -207 -8 -21 -19 -36 -23 -33 -4 3 -11 130 -15 282 -3 153 -12 436 -20 628 -8 208 -9 372 -4 404 15 97 49 125 167 137 l73 7 -3 41 -3 41 -327 3 -328 2 0 -39 c0 -45 2 -46 95 -57 117 -13 160 -65 176 -213 5 -47 21 -365 35 -706 19 -458 23 -636 15 -681 -23 -145 -94 -208 -244 -221 l-69 -6 6 -30 c3 -16 6 -36 6 -43 0 -16 147 -19 382 -8 l134 7 34 76 c18 42 42 96 53 121 10 25 59 135 109 245 49 110 96 214 103 230 14 31 229 513 269 600 13 28 56 123 96 212 41 90 77 160 80 155 4 -4 19 -36 34 -72 16 -36 41 -94 57 -130 59 -135 227 -526 236 -550 3 -8 16 -37 28 -65 23 -51 52 -119 112 -260 19 -44 46 -104 59 -133 13 -29 24 -55 24 -57 0 -2 11 -29 25 -59 14 -30 25 -57 25 -60 0 -3 11 -29 24 -58 13 -29 27 -64 31 -78 4 -14 18 -46 31 -71 l23 -46 113 -6 c62 -4 180 -7 261 -7 l148 0 -3 43 -3 42 -71 6 c-79 7 -130 27 -165 65 l-24 26 2 361 c3 510 30 1241 47 1282 26 61 109 95 235 95 43 0 43 0 37 31 -3 17 -6 38 -6 45 0 12 -63 14 -370 14 l-369 0 -7 -35 c-3 -20 -5 -38 -2 -40 2 -2 37 -11 78 -19 62 -13 80 -21 102 -48 16 -18 31 -48 35 -68 6 -34 -21 -1115 -34 -1328 -5 -85 -8 -98 -17 -80 -11 22 -49 110 -123 283 -19 44 -47 109 -63 145 -32 75 -109 252 -153 355 -16 39 -38 88 -47 110 -10 22 -59 139 -109 260 -51 121 -100 240 -111 265 -10 25 -32 76 -49 114 -17 37 -31 74 -31 82 0 14 -15 19 -81 28 -37 4 -37 4 -62 -52z"/>
 <path d="M3170 10011 c0 -44 2 -45 87 -56 63 -8 109 -37 137 -85 21 -34 21 -49 24 -827 2 -674 0 -798 -12 -827 -20 -48 -78 -76 -172 -83 l-74 -6 0 -42 0 -42 379 0 379 1 7 33 c3 18 4 37 1 42 -3 5 -32 10 -64 13 -101 7 -164 54 -182 134 -5 21 -10 382 -10 807 0 844 -2 818 61 856 21 13 60 22 115 26 l84 7 0 44 0 44 -380 0 -380 0 0 -39z"/>
 <path d="M4192 10006 l3 -40 76 -11 c119 -16 182 -71 249 -220 25 -56 122 -285 150 -355 20 -51 110 -272 163 -400 19 -47 65 -159 102 -250 210 -515 230 -562 273 -640 43 -79 47 -81 133 -93 l46 -6 12 57 c16 70 69 236 156 487 36 105 81 235 100 290 19 55 64 186 100 290 36 105 82 237 101 295 99 294 143 407 176 457 35 51 91 79 181 88 l68 7 -3 41 -3 42 -382 0 -383 1 0 -33 c0 -18 0 -36 0 -40 -1 -5 35 -13 79 -18 94 -13 131 -38 130 -89 0 -17 -40 -148 -87 -291 l-88 -260 -343 0 -343 0 -43 110 c-112 283 -136 348 -146 396 -20 92 13 122 144 134 82 8 87 12 71 71 -5 20 -11 20 -350 20 l-345 0 3 -40z m1303 -843 c-4 -10 -31 -92 -61 -183 -164 -501 -198 -599 -205 -593 -4 5 -37 85 -74 178 -37 94 -99 249 -137 345 -39 96 -79 196 -88 223 l-18 47 295 0 c277 0 295 -1 288 -17z"/>
 <path d="M5284 7590 c-57 -12 -133 -52 -166 -87 -14 -15 -37 -48 -50 -73 -22 -44 -23 -53 -26 -348 l-3 -302 -29 -15 c-16 -8 -43 -15 -60 -15 -23 0 -30 -4 -30 -20 0 -19 7 -20 185 -20 178 0 185 1 185 20 0 16 -7 20 -36 20 -26 0 -43 8 -65 30 l-30 30 3 272 c3 257 4 275 24 311 58 101 187 146 311 108 78 -23 111 -52 145 -126 22 -48 23 -60 23 -307 l0 -258 -26 -26 c-19 -18 -41 -28 -73 -31 -36 -5 -46 -9 -46 -24 0 -18 10 -19 154 -19 85 0 161 -3 170 -6 12 -5 16 0 16 20 0 23 -4 26 -34 26 -22 0 -45 9 -63 24 l-28 24 -5 289 -5 288 -29 53 c-36 66 -90 113 -163 141 -64 25 -185 35 -249 21z"/>
 <path d="M2394 7583 c-128 -3 -142 -5 -147 -22 -4 -15 3 -20 33 -25 21 -3 48 -14 61 -25 l24 -19 3 -346 3 -346 -25 -25 c-17 -17 -36 -25 -61 -25 -30 0 -35 -3 -35 -22 l0 -23 243 0 c233 0 244 1 295 24 93 42 131 107 120 206 -7 56 -55 118 -111 144 l-42 19 28 11 c16 6 34 11 40 11 23 0 87 62 109 103 31 60 30 157 -2 214 -51 92 -158 143 -310 147 -47 2 -149 1 -226 -1z m298 -68 c69 -24 108 -70 115 -138 8 -76 -3 -122 -38 -161 -40 -46 -98 -67 -201 -74 l-88 -5 0 172 c0 169 0 172 25 196 20 21 34 25 83 25 32 0 79 -7 104 -15z m18 -465 c39 -28 60 -74 60 -132 0 -99 -74 -161 -194 -162 -96 -1 -96 -1 -96 177 l0 150 99 -5 c82 -4 104 -9 131 -28z"/>
 <path d="M7820 7560 c0 -13 7 -20 19 -20 47 0 80 -22 91 -58 14 -52 13 -664 -1 -696 -12 -26 -35 -36 -85 -36 -27 0 -31 -3 -27 -22 4 -23 6 -23 179 -23 174 0 174 0 174 23 0 18 -5 22 -35 22 -71 0 -88 48 -83 242 l3 117 44 -22 c52 -26 301 -280 301 -307 0 -20 -19 -30 -56 -30 -18 0 -24 -5 -24 -22 l0 -23 172 2 c157 2 173 4 173 20 0 13 -11 19 -43 25 -75 13 -142 59 -284 197 -76 73 -138 137 -138 142 0 4 6 14 13 21 7 7 52 60 101 118 49 58 130 146 180 197 77 77 99 93 139 103 35 9 47 17 47 31 0 18 -9 19 -112 19 l-113 -1 -120 -145 c-165 -201 -235 -274 -263 -274 -22 0 -22 1 -22 158 0 189 5 203 73 216 36 6 47 12 47 27 0 18 -10 19 -175 19 -168 0 -175 -1 -175 -20z"/>
 <path d="M10650 7561 c0 -15 10 -21 40 -26 71 -12 70 -6 70 -402 l0 -352 -22 -15 c-12 -9 -37 -16 -55 -16 -28 0 -33 -4 -33 -22 0 -23 0 -23 175 -23 175 0 175 0 175 23 0 18 -6 22 -29 22 -89 0 -91 8 -91 402 0 379 -2 371 75 382 36 6 45 11 45 27 0 18 -9 19 -175 19 -166 0 -175 -1 -175 -19z"/>
 <path d="M13176 7564 c-3 -9 -6 -17 -6 -19 0 -1 21 -6 46 -10 88 -13 84 5 84 -410 l0 -365 -75 0 c-124 0 -177 36 -190 130 -7 48 -17 58 -41 42 -7 -4 -13 -50 -15 -117 l-4 -110 387 0 388 0 -6 110 c-7 103 -15 129 -39 122 -5 -2 -15 -26 -21 -53 -24 -102 -44 -117 -171 -122 l-93 -4 0 371 0 371 23 14 c12 8 41 18 65 22 32 5 42 11 42 25 0 18 -11 19 -184 19 -158 0 -185 -2 -190 -16z"/>
 <path d="M7826 6311 c-3 -4 21 -29 53 -55 92 -74 169 -177 221 -295 30 -69 64 -185 120 -411 17 -68 46 -155 65 -193 18 -38 27 -63 20 -56 -27 28 -95 167 -135 279 -115 315 -133 353 -219 451 -53 59 -174 157 -225 180 -13 6 -36 9 -49 5 -21 -5 -27 -15 -36 -56 -25 -119 -5 -321 49 -487 89 -274 214 -411 573 -624 157 -94 572 -294 690 -333 9 -3 28 -1 42 4 19 7 25 17 25 39 0 27 -11 38 -93 95 -52 36 -106 82 -120 103 -37 53 -65 140 -77 239 -5 46 -15 123 -21 171 -68 556 -405 952 -811 953 -37 0 -69 -4 -72 -9z m614 -456 c50 -104 61 -147 17 -68 -19 34 -51 85 -71 113 -21 29 -33 49 -27 45 6 -3 11 2 11 12 1 17 2 16 16 -2 9 -11 33 -56 54 -100z"/>
 </g>
<g id="layer102" fill="#67a039" stroke="none">
 <path d="M10940 11118 c0 -7 4 -20 10 -28 11 -17 -4 -30 -37 -30 -29 0 -198 -58 -242 -83 -32 -18 -123 -77 -155 -101 -8 -5 -40 11 -91 45 -119 78 -125 82 -190 116 -121 62 -180 77 -300 78 -100 0 -114 -2 -160 -27 -59 -31 -95 -67 -125 -126 -19 -36 -22 -55 -19 -126 4 -75 7 -89 35 -128 54 -76 143 -106 219 -74 66 28 90 142 39 193 -24 24 -30 25 -117 22 l-92 -4 1 43 c1 54 26 89 85 119 127 64 317 20 527 -122 117 -79 118 -80 101 -103 -60 -83 -81 -116 -117 -182 -69 -130 -94 -225 -100 -380 -3 -99 0 -155 12 -211 67 -321 322 -484 605 -384 154 54 307 253 352 458 13 63 26 79 43 55 6 -8 47 -46 91 -84 44 -38 114 -102 155 -143 41 -40 95 -89 120 -109 47 -38 133 -116 235 -212 116 -111 364 -308 480 -382 81 -52 164 -98 176 -98 5 0 32 -11 61 -24 76 -34 125 -46 195 -46 71 0 93 6 93 26 0 12 -160 199 -204 239 -46 41 -285 348 -386 495 -30 43 -27 39 -96 125 -31 39 -70 90 -87 115 -133 193 -506 635 -741 878 -67 68 -69 72 -43 72 49 0 201 -38 262 -66 80 -36 178 -99 256 -166 35 -30 77 -63 92 -73 26 -17 30 -17 44 -2 15 14 15 18 -1 42 -26 40 -196 176 -281 224 -125 72 -296 120 -429 121 -50 0 -63 4 -93 30 -31 28 -40 30 -108 30 -53 0 -75 -4 -75 -12z m94 -180 c66 -158 111 -387 104 -536 l-3 -73 -51 48 c-93 87 -129 120 -216 194 -142 123 -190 164 -206 173 -8 5 -24 17 -36 27 -12 10 -30 24 -40 32 -18 13 -16 16 35 54 77 58 144 89 251 117 134 36 130 37 162 -36z m241 -238 c50 -57 97 -112 105 -121 8 -9 24 -27 35 -40 40 -50 287 -355 298 -369 63 -81 92 -117 102 -125 6 -5 40 -48 75 -95 204 -271 450 -541 652 -717 55 -48 84 -79 74 -81 -19 -4 -139 44 -188 75 -21 12 -40 23 -44 23 -11 0 -190 125 -289 203 -187 147 -367 310 -760 692 l-113 110 -6 165 c-4 121 -12 196 -30 283 -14 65 -28 123 -31 130 -8 14 3 3 120 -133z m-636 -49 c114 -88 412 -351 468 -413 21 -22 22 -29 14 -79 -34 -209 -176 -368 -356 -400 -75 -13 -185 7 -252 46 -53 32 -126 107 -158 164 -101 177 -76 442 63 660 42 66 82 121 89 121 3 0 62 -44 132 -99z"/>
 <path d="M12023 11119 c-56 -13 -109 -64 -118 -112 -10 -50 0 -84 35 -118 23 -23 37 -29 74 -29 36 0 48 5 65 26 25 32 26 55 6 94 -12 23 -25 31 -56 36 -40 7 -40 7 -22 26 45 45 153 31 223 -29 80 -69 139 -237 156 -446 l7 -81 -39 24 c-57 35 -180 126 -252 187 -69 58 -102 68 -102 30 0 -15 16 -39 43 -64 52 -49 224 -176 306 -226 45 -27 61 -43 61 -60 1 -65 76 -157 129 -157 36 0 51 17 51 57 0 44 -21 83 -65 121 l-35 32 19 57 c48 146 31 322 -43 432 l-34 50 27 -10 c35 -14 178 -101 221 -136 8 -7 55 -44 103 -83 88 -72 117 -82 117 -39 0 49 -242 235 -419 324 -162 81 -350 119 -458 94z"/>
 <path d="M12965 11110 c-9 -15 11 -44 112 -157 181 -203 275 -327 298 -393 13 -36 13 -42 0 -47 -35 -13 -160 63 -303 184 -65 56 -95 64 -100 27 -7 -52 218 -237 383 -316 141 -66 218 -12 181 128 -8 32 -14 59 -13 61 2 1 17 -10 33 -25 123 -112 177 -152 203 -152 46 0 89 11 95 25 2 7 -17 39 -44 70 -94 111 -147 244 -120 296 17 31 29 39 63 39 44 0 87 -24 183 -106 90 -75 125 -89 132 -50 7 36 -179 190 -270 222 -97 34 -195 7 -224 -61 -16 -39 -18 -121 -4 -179 l9 -39 -86 84 c-80 79 -255 279 -317 362 l-28 37 -89 0 c-50 0 -91 -4 -94 -10z"/>
 <path d="M14130 11092 c-37 -38 -46 -85 -26 -150 18 -61 49 -109 145 -220 l72 -83 -48 36 c-106 79 -135 96 -149 91 -23 -9 -16 -41 14 -67 15 -14 63 -52 107 -85 234 -177 352 -244 430 -244 64 0 125 17 125 35 0 8 -46 53 -102 101 -166 140 -408 390 -443 456 -28 55 -29 58 -12 75 15 15 22 16 64 5 92 -24 280 -132 393 -224 19 -16 40 -32 45 -36 6 -4 33 -27 62 -51 38 -32 57 -41 72 -36 32 10 26 26 -31 84 -55 56 -283 231 -300 231 -5 0 -23 9 -39 21 -17 12 -67 36 -112 55 -69 28 -94 34 -160 34 -73 0 -81 -2 -107 -28z"/>
 <path d="M14969 10081 c-64 -64 -19 -161 76 -161 63 0 95 31 95 94 0 37 -5 48 -31 70 -44 37 -101 36 -140 -3z"/>
 <path d="M1790 10084 c-14 -3 -63 -12 -110 -21 -425 -80 -735 -381 -805 -781 -19 -109 -19 -320 -1 -432 30 -184 120 -360 251 -495 100 -103 163 -148 295 -213 197 -97 388 -136 660 -136 179 1 349 19 477 51 l66 16 -7 61 c-3 34 -9 150 -13 259 l-6 197 -39 0 c-21 0 -41 1 -45 3 -5 1 -9 -9 -11 -23 -19 -191 -106 -330 -246 -398 -89 -43 -175 -56 -326 -49 -140 7 -221 27 -333 81 -208 100 -337 263 -405 514 -24 89 -26 113 -26 292 0 164 4 211 22 293 86 385 328 619 677 656 256 27 448 -47 578 -222 33 -44 147 -266 147 -286 0 -7 6 -11 14 -8 8 3 31 9 50 13 20 3 36 7 36 9 0 1 -9 40 -21 86 -23 93 -69 358 -69 402 0 32 -9 37 -120 66 -149 40 -319 62 -495 66 -93 2 -181 1 -195 -1z"/>
 <path d="M2394 7583 c-128 -3 -142 -5 -147 -22 -4 -15 3 -20 33 -25 21 -3 48 -14 61 -25 l24 -19 3 -346 3 -346 -25 -25 c-17 -17 -36 -25 -61 -25 -30 0 -35 -3 -35 -22 l0 -23 243 0 c240 0 242 0 298 26 34 16 68 42 85 65 25 33 29 46 29 105 0 59 -4 73 -30 111 -18 25 -49 52 -75 65 -37 19 -41 23 -25 29 96 34 125 56 158 119 30 57 28 157 -3 213 -51 91 -159 142 -310 146 -47 2 -149 1 -226 -1z m290 -64 c21 -6 57 -28 79 -48 36 -34 41 -44 45 -94 6 -78 -4 -122 -39 -161 -40 -46 -98 -67 -201 -74 l-88 -5 0 172 c0 169 0 172 25 196 20 21 34 25 82 25 32 0 75 -5 97 -11z m26 -469 c39 -28 60 -74 60 -132 0 -99 -74 -161 -194 -162 -96 -1 -96 -1 -96 177 l0 150 99 -5 c82 -4 104 -9 131 -28z"/>
 <path d="M7832 6311 c-9 -5 3 -20 43 -51 93 -72 171 -177 227 -305 33 -77 51 -136 117 -402 17 -67 47 -155 66 -195 24 -51 29 -66 14 -48 -32 38 -83 143 -129 270 -86 234 -103 276 -134 334 -58 110 -278 306 -342 306 -41 0 -57 -40 -62 -154 -7 -168 34 -367 110 -526 95 -197 204 -300 516 -488 153 -92 574 -296 695 -336 9 -3 28 -1 42 4 19 7 25 17 25 39 0 27 -11 38 -93 95 -52 36 -106 82 -120 103 -37 54 -65 140 -77 241 -6 48 -15 125 -21 171 -60 496 -350 884 -701 941 -76 12 -158 13 -176 1z m-64 -188 c94 -67 174 -151 217 -227 37 -66 37 -67 20 -102 -49 -103 -17 -243 91 -405 54 -80 191 -214 249 -244 22 -11 74 -46 117 -77 75 -54 219 -140 283 -167 30 -13 185 -111 185 -117 0 -10 -207 84 -399 181 -306 154 -498 281 -613 404 -160 172 -265 513 -232 755 4 25 9 46 12 46 2 0 34 -21 70 -47z m672 -268 c50 -104 61 -147 17 -68 -19 34 -51 85 -71 113 -21 29 -33 49 -27 45 6 -3 11 2 11 12 1 17 2 16 16 -2 9 -11 33 -56 54 -100z"/>
 </g>
<g id="layer103" fill="#be9b30" stroke="none">
 <path d="M10940 11118 c0 -7 4 -20 10 -28 11 -17 -4 -30 -37 -30 -29 0 -198 -58 -242 -83 -32 -18 -123 -77 -155 -101 -8 -5 -40 11 -91 45 -119 78 -125 82 -190 116 -121 62 -180 77 -300 78 -100 0 -114 -2 -160 -27 -59 -31 -95 -67 -125 -126 -19 -36 -22 -55 -19 -126 4 -75 7 -89 35 -128 54 -76 143 -106 219 -74 66 28 90 142 39 193 -24 24 -30 25 -117 22 l-92 -4 1 43 c1 54 26 89 85 119 127 64 317 20 527 -122 117 -79 118 -80 101 -103 -60 -83 -81 -116 -117 -182 -70 -131 -94 -224 -100 -384 -3 -90 0 -152 7 -178 7 -21 14 -53 16 -71 2 -18 16 -59 30 -91 104 -234 328 -335 564 -251 154 54 307 253 352 458 14 67 25 78 48 50 9 -11 48 -46 86 -79 39 -33 111 -99 160 -148 50 -48 101 -95 115 -104 28 -19 206 -178 260 -233 71 -74 343 -289 455 -361 81 -52 164 -98 176 -98 5 0 32 -11 61 -24 76 -34 125 -46 195 -46 71 0 93 6 93 26 0 12 -160 199 -204 239 -46 41 -287 350 -386 495 -14 19 -30 41 -37 48 -7 7 -13 16 -13 20 0 4 -21 30 -46 57 -24 28 -61 75 -81 105 -124 185 -502 635 -747 888 -67 68 -69 72 -43 72 49 0 201 -38 262 -66 80 -36 178 -99 256 -166 35 -30 77 -63 92 -73 26 -17 30 -17 44 -2 15 14 15 18 -1 42 -26 40 -196 176 -281 224 -125 72 -296 120 -429 121 -50 0 -63 4 -93 30 -31 28 -40 30 -108 30 -53 0 -75 -4 -75 -12z m94 -180 c66 -158 111 -387 104 -536 l-3 -73 -51 48 c-93 87 -129 120 -216 194 -142 123 -190 164 -206 173 -8 5 -24 17 -36 27 -12 10 -30 24 -40 32 -18 13 -16 16 35 54 77 58 144 89 251 117 134 36 130 37 162 -36z m241 -238 c50 -57 97 -112 105 -121 8 -9 24 -27 35 -40 40 -50 287 -355 298 -369 56 -71 93 -116 102 -122 5 -4 30 -34 55 -68 190 -261 464 -566 671 -746 55 -49 85 -80 75 -82 -19 -4 -139 44 -188 75 -21 12 -40 23 -44 23 -11 0 -190 125 -289 203 -194 152 -413 350 -716 648 l-157 154 -5 165 c-4 120 -13 197 -31 283 -14 65 -28 123 -31 130 -8 14 3 3 120 -133z m-636 -49 c114 -88 412 -351 468 -413 21 -22 22 -29 14 -79 -34 -209 -176 -368 -356 -400 -75 -13 -185 7 -252 46 -53 32 -126 107 -158 164 -101 177 -76 442 63 660 42 66 82 121 89 121 3 0 62 -44 132 -99z"/>
 <path d="M12023 11119 c-56 -13 -109 -64 -118 -112 -10 -50 0 -84 35 -118 23 -23 37 -29 74 -29 36 0 48 5 65 26 25 32 26 55 6 94 -12 23 -25 31 -56 36 -40 7 -40 7 -22 26 45 45 153 31 223 -29 80 -69 139 -237 156 -446 l7 -81 -39 24 c-57 35 -180 126 -252 187 -69 58 -102 68 -102 30 0 -15 16 -39 43 -64 52 -49 224 -176 306 -226 45 -27 61 -43 61 -60 1 -65 76 -157 129 -157 36 0 51 17 51 57 0 44 -21 83 -65 121 l-35 32 19 57 c48 146 31 322 -43 432 l-34 50 27 -10 c35 -14 178 -101 221 -136 8 -7 55 -44 103 -83 88 -72 117 -82 117 -39 0 49 -242 235 -419 324 -162 81 -350 119 -458 94z"/>
 <path d="M12965 11110 c-9 -15 11 -44 112 -157 181 -203 275 -327 298 -393 13 -36 13 -42 0 -47 -35 -13 -160 63 -303 184 -65 56 -95 64 -100 27 -7 -52 218 -237 383 -316 141 -66 218 -12 181 128 -8 32 -14 59 -13 61 2 1 17 -10 33 -25 123 -112 177 -152 203 -152 46 0 89 11 95 25 2 7 -17 39 -44 70 -94 111 -147 244 -120 296 17 31 29 39 63 39 44 0 87 -24 183 -106 90 -75 125 -89 132 -50 7 36 -179 190 -270 222 -97 34 -195 7 -224 -61 -16 -39 -18 -121 -4 -179 l9 -39 -86 84 c-80 79 -255 279 -317 362 l-28 37 -89 0 c-50 0 -91 -4 -94 -10z"/>
 <path d="M14130 11092 c-37 -38 -46 -85 -26 -150 18 -61 49 -109 145 -220 l72 -83 -48 36 c-106 79 -135 96 -149 91 -23 -9 -16 -41 14 -67 15 -14 63 -52 107 -85 234 -177 352 -244 430 -244 64 0 125 17 125 35 0 8 -46 53 -102 101 -166 140 -408 390 -443 456 -28 55 -29 58 -12 75 15 15 22 16 64 5 92 -24 280 -132 393 -224 19 -16 40 -32 45 -36 6 -4 33 -27 62 -51 38 -32 57 -41 72 -36 32 10 26 26 -31 84 -55 56 -283 231 -300 231 -5 0 -23 9 -39 21 -17 12 -67 36 -112 55 -69 28 -94 34 -160 34 -73 0 -81 -2 -107 -28z"/>
 <path d="M14969 10081 c-63 -64 -19 -161 74 -161 63 0 88 23 94 86 5 47 3 52 -27 77 -45 38 -101 37 -141 -2z"/>
 <path d="M1790 10084 c-14 -3 -63 -12 -110 -21 -425 -80 -735 -381 -805 -781 -19 -109 -19 -320 -1 -432 30 -184 120 -360 251 -495 100 -103 163 -148 295 -213 197 -97 388 -136 660 -136 179 1 349 19 477 51 l66 16 -7 61 c-3 34 -9 150 -13 259 l-6 197 -39 0 c-21 0 -41 1 -45 3 -5 1 -9 -9 -11 -23 -19 -191 -106 -330 -246 -398 -89 -43 -175 -56 -326 -49 -140 7 -221 27 -333 81 -208 100 -337 263 -405 514 -24 89 -26 113 -26 292 0 164 4 211 22 293 86 385 328 619 677 656 256 27 448 -47 578 -222 33 -44 147 -266 147 -286 0 -7 6 -11 14 -8 8 3 31 9 50 13 20 3 36 7 36 9 0 1 -9 40 -21 86 -23 93 -69 358 -69 402 0 32 -9 37 -120 66 -149 40 -319 62 -495 66 -93 2 -181 1 -195 -1z"/>
 <path d="M2394 7583 c-128 -3 -142 -5 -147 -22 -4 -15 3 -20 33 -25 21 -3 48 -14 61 -25 l24 -19 3 -346 3 -346 -25 -25 c-17 -17 -36 -25 -61 -25 -30 0 -35 -3 -35 -22 l0 -23 243 0 c240 0 242 0 298 26 34 16 68 42 85 65 25 33 29 46 29 105 0 59 -4 73 -30 111 -18 25 -49 52 -75 65 -37 19 -41 23 -25 29 96 34 125 56 158 119 30 57 28 157 -3 213 -51 91 -159 142 -310 146 -47 2 -149 1 -226 -1z m290 -64 c21 -6 57 -28 79 -48 36 -34 41 -44 45 -94 6 -78 -4 -122 -39 -161 -40 -46 -98 -67 -201 -74 l-88 -5 0 172 c0 169 0 172 25 196 20 21 34 25 82 25 32 0 75 -5 97 -11z m26 -469 c39 -28 60 -74 60 -132 0 -99 -74 -161 -194 -162 -96 -1 -96 -1 -96 177 l0 150 99 -5 c82 -4 104 -9 131 -28z"/>
 <path d="M7990 6225 c0 -2 24 -17 53 -34 59 -35 111 -74 85 -65 -18 6 -78 -30 -78 -48 0 -5 15 -42 34 -82 42 -88 81 -207 101 -306 28 -135 66 -261 100 -333 25 -52 29 -65 14 -47 -32 38 -83 143 -129 270 -86 234 -103 276 -134 334 -58 110 -278 306 -342 306 -41 0 -57 -40 -62 -154 -7 -168 34 -367 110 -526 95 -197 204 -300 516 -488 153 -92 574 -296 695 -336 9 -3 28 -1 42 4 19 7 25 17 25 39 0 25 -10 37 -67 77 -36 26 -114 71 -172 100 -157 78 -149 68 -117 147 23 59 26 78 26 194 0 179 -37 329 -121 497 -81 161 -242 344 -283 319 -5 -4 -6 -1 -2 5 3 6 -3 14 -15 17 -11 4 -40 20 -64 36 -24 16 -68 38 -97 48 -57 19 -118 33 -118 26z m-232 -92 c91 -60 193 -169 235 -249 20 -39 67 -156 105 -260 38 -104 83 -216 100 -249 88 -176 254 -321 531 -465 118 -62 206 -118 198 -127 -7 -7 -304 129 -457 209 -292 154 -477 282 -578 402 -115 137 -196 363 -209 577 -5 98 1 199 13 199 3 0 31 -17 62 -37z m682 -278 c50 -104 61 -147 17 -68 -19 34 -51 85 -71 113 -21 29 -33 49 -27 45 6 -3 11 2 11 12 1 17 2 16 16 -2 9 -11 33 -56 54 -100z"/>
 </g>
<g id="layer104" fill="#87bc43" stroke="none">
 <path d="M7990 6225 c0 -2 24 -17 53 -34 59 -35 111 -74 85 -65 -18 6 -78 -30 -78 -48 0 -5 18 -47 39 -92 39 -83 74 -197 127 -421 32 -137 88 -258 159 -347 43 -53 144 -136 226 -186 l35 -21 27 69 c24 63 27 82 27 197 0 179 -37 329 -121 497 -81 161 -242 344 -283 319 -5 -4 -6 -1 -2 5 3 6 -3 14 -15 17 -11 4 -40 20 -64 36 -24 16 -68 38 -97 48 -57 19 -118 33 -118 26z m450 -370 c50 -104 61 -147 17 -68 -19 34 -51 85 -71 113 -21 29 -33 49 -27 45 6 -3 11 2 11 12 1 17 2 16 16 -2 9 -11 33 -56 54 -100z"/>
 </g>
<g id="layer105" fill="#bcdc9e" stroke="none">
 <path d="M8117 6170 c-3 -13 8 -27 40 -51 25 -17 81 -66 126 -107 70 -66 81 -73 87 -56 13 35 -108 162 -198 208 -47 24 -50 24 -55 6z"/>
 </g>

</svg>